HIERARCHY
ROOT Hips
{
	OFFSET -3.958830 18.904000 13.208200
	CHANNELS 6 Xposition Yposition Zposition Zrotation Yrotation Xrotation 
	JOINT LHipJoint
	{
		OFFSET 0.000000 0.000000 0.000000
		CHANNELS 3 Zrotation Yrotation Xrotation
		JOINT LeftUpLeg
		{
			OFFSET 1.800000 -1.400000 0.085000
			CHANNELS 3 Zrotation Yrotation Xrotation
			JOINT LeftLeg
			{
				OFFSET 2.215000 -6.000000 0.000000
				CHANNELS 3 Zrotation Yrotation Xrotation
				JOINT LeftFoot
				{
					OFFSET 2.500000 -6.900000 0.000000
					CHANNELS 3 Zrotation Yrotation Xrotation
					JOINT LeftToeBase
					{
						OFFSET 0.200000 -0.500000 1.950000
						CHANNELS 3 Zrotation Yrotation Xrotation
						End Site
						{
							OFFSET 0.000000 0.000000 0.000000
						}
					}
				}
			}
		}
	}
	JOINT RHipJoint
	{
		OFFSET 0.000000 0.000000 0.000000
		CHANNELS 3 Zrotation Yrotation Xrotation
		JOINT RightUpLeg
		{
			OFFSET -1.800000 -1.400000 0.085000
			CHANNELS 3 Zrotation Yrotation Xrotation
			JOINT RightLeg
			{
				OFFSET -2.215000 -6.000000 0.000000
				CHANNELS 3 Zrotation Yrotation Xrotation
				JOINT RightFoot
				{
					OFFSET -2.500000 -6.900000 0.000000
					CHANNELS 3 Zrotation Yrotation Xrotation
					JOINT RightToeBase
					{
						OFFSET -0.200000 -0.500000 1.950000
						CHANNELS 3 Zrotation Yrotation Xrotation
						End Site
						{
							OFFSET 0.000000 0.000000 0.000000
						}
					}
				}
			}
		}
	}
	JOINT LowerBack
	{
		OFFSET 0.000000 0.000000 0.000000
		CHANNELS 3 Zrotation Yrotation Xrotation
		JOINT Spine
		{
			OFFSET -0.087000 1.940000 -0.288900
			CHANNELS 3 Zrotation Yrotation Xrotation
			JOINT Spine1
			{
				OFFSET 0.000000 1.950000 0.060000
				CHANNELS 3 Zrotation Yrotation Xrotation
				JOINT Neck
				{
					OFFSET 0.000000 0.000000 0.000000
					CHANNELS 3 Zrotation Yrotation Xrotation
					JOINT Neck1
					{
						OFFSET 0.000000 1.600000 0.340000
						CHANNELS 3 Zrotation Yrotation Xrotation
						JOINT Head
						{
							OFFSET 0.000000 1.667000 -0.240000
							CHANNELS 3 Zrotation Yrotation Xrotation
							End Site
							{
								OFFSET 0.000000 0.000000 0.000000
							}
						}
					}
				}
				JOINT LeftShoulder
				{
					OFFSET 0.000000 0.000000 0.000000
					CHANNELS 3 Zrotation Yrotation Xrotation
					JOINT LeftArm
					{
						OFFSET 2.700000 1.550000 -0.730000
						CHANNELS 3 Zrotation Yrotation Xrotation
						JOINT LeftForeArm
						{
							OFFSET 5.450000 0.000000 0.000000
							CHANNELS 3 Zrotation Yrotation Xrotation
							JOINT LeftHand
							{
								OFFSET 3.450000 0.000000 0.000000
								CHANNELS 3 Zrotation Yrotation Xrotation
								JOINT LeftHandIndex1
								{
									OFFSET 0.750000 0.000000 0.000000
									CHANNELS 3 Zrotation Yrotation Xrotation
									End Site
									{
										OFFSET 0.000000 0.000000 0.000000
									}
								}
							}
						}
					}
				}
				JOINT RightShoulder
				{
					OFFSET 0.000000 0.000000 0.000000
					CHANNELS 3 Zrotation Yrotation Xrotation
					JOINT RightArm
					{
						OFFSET -2.700000 1.550000 -0.730000
						CHANNELS 3 Zrotation Yrotation Xrotation
						JOINT RightForeArm
						{
							OFFSET -5.450000 0.000000 0.000000
							CHANNELS 3 Zrotation Yrotation Xrotation
							JOINT RightHand
							{
								OFFSET -3.450000 0.000000 0.000000
								CHANNELS 3 Zrotation Yrotation Xrotation
								JOINT RightHandIndex1
								{
									OFFSET -0.750000 0.000000 0.000000
									CHANNELS 3 Zrotation Yrotation Xrotation
									End Site
									{
										OFFSET 0.000000 0.000000 0.000000
									}
								}
							}
						}
					}
				}
			}
		}
	}
}
MOTION
Frames: 14
Frame Time: 0.016667
0.202630 16.175920 2.365200 3.114465 15.315299 -11.235854 -16.188313 14.588085 4.142988 -11.430553 0.643474 0.506548 -13.405093 7.484897 10.975535 0.237040 5.009344 2.839662 0.229450 0.211120 0.294150 17.395402 -8.203129 3.517022 2.512388 6.425305 -25.719199 17.664604 -14.929118 43.722800 -1.292590 -7.343084 1.624390 -0.031520 -0.085900 0.189870 -1.090654 -8.122235 -8.944193 18.759604 -4.893552 45.897166 9.081188 -2.254267 15.126562 5.271612 1.235731 -23.061285 -2.443983 -10.005274 39.074004 -9.414590 -7.317690 -18.846010 -14.305935 -30.415533 10.124864 0.425071 -5.596199 -2.520538 13.724139 0.090100 -0.992274 -3.905961 2.509852 0.581760 -0.200900 0.381170 0.004290 3.489020 32.724937 17.020136 20.068522 -2.595705 -4.140601 -12.945921 -5.914563 0.507415 3.106978 -0.970985 -0.023330 0.184470 -0.013020 -0.012270 
0.240000 16.184490 2.380130 3.921916 19.834388 -12.811017 -16.226992 14.818079 4.314362 -11.313667 1.020659 3.490102 -13.743876 7.830870 11.026954 0.364544 5.277632 2.746934 0.272130 0.265290 0.330590 17.326731 -8.288302 3.279962 2.706722 5.317514 -21.034767 17.418533 -14.931319 42.996460 -1.321103 -7.271057 1.660371 -0.011620 -0.148940 0.162760 -0.950769 -8.538917 -8.918062 20.942734 -5.035856 46.328111 7.709202 -0.587479 13.781070 4.813811 2.926802 -23.709415 0.076017 -11.773000 40.732693 -9.198770 -8.740290 -19.118380 -14.361872 -31.408319 10.105811 9.560026 -2.285399 -3.874683 12.736776 -5.812625 -1.072012 -3.757042 2.538368 0.593520 -0.252850 0.418990 0.017590 4.059623 33.317884 17.137557 24.863629 -1.868335 -3.193070 -10.568150 -5.723175 0.727690 3.083686 -0.958896 -0.005090 0.173520 -0.067450 -0.007190 
0.272220 16.201900 2.416640 4.253945 24.421684 -14.616870 -16.280782 15.231639 4.470876 -10.138148 1.241273 6.185834 -14.139860 8.289653 11.575857 0.432499 5.657065 2.616591 0.319860 0.293140 0.321770 17.229444 -8.280970 3.100599 3.621033 4.335681 -15.646299 16.094775 -14.070341 41.273682 -1.272488 -6.893971 1.793891 0.019490 -0.165400 0.120160 -0.678708 -9.455578 -8.876509 22.353272 -5.505364 47.076516 7.163774 0.751742 12.172327 4.042719 3.115148 -24.346235 -0.397424 -12.820006 44.235995 -5.540580 -12.003930 -19.615900 -14.429308 -31.870368 9.423584 18.139009 -1.101115 -4.452161 11.439378 -5.725821 -0.894322 -3.755951 2.381729 0.643560 -0.317160 0.409840 0.034170 5.819398 34.264089 17.311806 25.689854 -0.001508 -1.995111 -7.524536 -7.079385 0.887184 3.098312 -0.855620 -0.021110 0.196330 -0.074810 -0.005250 
0.284210 16.225660 2.454050 6.427821 27.409681 -16.035037 -16.377324 15.661820 4.682386 -10.448284 1.481160 8.377494 -14.745861 8.885174 12.761111 0.592194 5.969371 2.469128 0.404650 0.428760 0.307170 17.120143 -8.223759 2.792787 3.610923 3.159094 -8.704795 12.827085 -11.628744 37.714996 -1.144277 -6.066261 2.061258 0.072550 -0.223440 0.105420 -0.216608 -10.647353 -8.816489 20.839725 -4.401961 49.610985 6.447932 3.076761 11.509826 3.482285 2.633174 -25.536598 -1.802108 -12.476097 46.322795 -1.396430 -13.792750 -22.552750 -12.646688 -31.947563 9.371718 26.187599 0.350030 -4.839229 10.199843 -2.555658 -0.811327 -3.844610 2.087589 0.643490 -0.399990 0.456000 0.060630 5.787893 36.111767 17.598707 26.871055 2.863622 -0.643966 -4.991086 -6.868746 0.895806 3.109982 -0.795917 0.047180 0.179530 -0.113190 0.041750 
0.315750 16.237600 2.491990 8.013882 31.228484 -16.647667 -16.405183 15.981962 4.864203 -11.418230 2.130784 10.664057 -13.495970 9.036800 13.381605 0.717653 6.075078 2.417016 0.479630 0.537250 0.285510 17.079325 -8.089965 2.715883 4.019833 2.756473 -4.174129 10.160462 -9.809444 35.251273 -1.079460 -5.573500 2.212001 0.111300 -0.252250 0.119620 0.140833 -11.686148 -8.836075 20.556767 -4.337365 50.203765 4.582928 5.621488 11.019848 3.152061 1.757957 -27.971858 -4.325174 -11.870675 48.968244 0.229640 -15.795680 -22.743070 -10.319466 -32.631276 9.544282 33.011617 1.860020 -5.977314 9.917101 1.391410 -1.006736 -4.034521 1.737996 0.613210 -0.448650 0.487570 0.112570 5.244054 39.053034 18.406919 28.453383 5.149685 0.337700 -4.120474 -8.034358 1.020105 3.205267 -0.796255 0.119580 0.142320 -0.163310 0.108900 
0.367410 16.258680 2.509720 8.225170 37.139497 -18.250006 -16.235145 16.137120 4.997989 -11.170481 2.883637 13.988379 -11.585838 9.072526 13.858648 0.798502 6.256201 2.367182 0.496980 0.601930 0.196570 17.188997 -8.079297 2.831511 3.707292 2.739685 -0.643810 10.624708 -9.540755 33.331100 -1.067735 -5.554663 2.232795 0.165300 -0.184920 0.094420 0.136498 -12.187236 -8.670598 23.100685 -7.308829 50.380233 0.911708 7.144623 10.143883 1.850741 0.196529 -29.544017 -7.671924 -10.497818 49.787244 2.772310 -17.109910 -21.843010 -7.403578 -32.568207 8.609194 39.294529 2.843453 -7.427888 8.520939 4.910191 -1.316058 -4.254148 1.295580 0.539250 -0.432870 0.439160 0.159680 5.846115 40.341527 19.656536 30.103229 5.744380 0.373569 -7.685323 -5.223663 1.037276 3.169256 -0.986205 0.134470 0.176780 -0.156530 0.178760 
0.350430 16.323740 2.524900 10.069805 44.518354 -20.484613 -15.966262 16.268223 5.164420 -10.254884 4.029901 19.390897 -10.198990 9.232161 13.612568 0.821193 6.704623 2.199593 0.579000 0.692350 0.196350 17.402306 -8.070932 2.853517 2.349459 2.978166 4.019722 10.258546 -8.865707 31.392255 -1.096306 -5.569715 2.186703 0.272600 -0.139360 0.093100 0.353956 -12.952123 -8.458038 22.655446 -10.856208 52.466561 -4.954531 9.311476 9.785210 0.509793 0.564365 -32.080770 -7.355786 -9.054408 52.744256 4.851290 -16.935960 -21.530450 -2.587377 -33.419698 8.077232 45.291651 6.687431 -10.075731 8.718824 8.578931 -1.929856 -4.568357 0.908846 0.543460 -0.428410 0.415580 0.186080 3.770738 42.834088 21.146834 31.780871 8.928862 1.129435 -8.794490 -6.581662 1.196857 3.180294 -1.066600 0.113770 0.231780 -0.136920 0.189670 
0.307180 16.387210 2.513940 10.790258 54.211303 -24.004023 -15.476736 16.080493 5.149379 -7.135465 4.867307 25.314345 -8.626731 9.373738 13.540453 0.800506 7.182786 1.999306 0.754940 0.938880 0.394460 17.812305 -8.373177 2.933391 0.601748 2.769482 9.196795 10.020998 -8.527660 29.147080 -1.226317 -5.789188 2.042370 0.474050 -0.193030 0.167740 0.490039 -12.984986 -8.065257 23.899205 -14.378862 53.182026 -9.707003 7.341244 13.733188 0.316713 2.089061 -30.812655 -2.161180 -10.035960 46.491533 -0.108920 -13.766050 -24.647320 1.950864 -34.633930 5.208990 53.492490 13.157739 -12.180384 7.039258 10.836628 -2.699691 -4.713038 0.678863 0.517770 -0.361820 0.501940 0.175440 -2.955402 45.699995 23.153822 30.176048 13.110685 1.850954 -9.706832 -8.833061 0.944796 3.206297 -1.145904 0.138470 0.269960 -0.200770 0.146300 
0.259790 16.424190 2.530080 11.740261 61.519081 -26.662709 -15.162422 15.443197 4.983369 -5.667346 5.590901 29.712356 -5.608695 9.134915 14.212084 0.621346 7.469479 1.873419 0.936240 1.197440 0.670120 18.147776 -8.775591 2.952860 0.315210 2.828235 12.967338 7.953620 -7.991760 29.369277 -1.337961 -6.221470 1.858411 0.744410 -0.209910 0.209470 0.151259 -11.571737 -7.748809 25.375114 -16.763667 54.028558 -14.340425 6.957919 15.881424 -0.711786 4.429438 -28.016389 5.983825 -8.618048 35.964676 -6.182130 -7.326870 -25.472950 9.453988 -32.394224 3.726059 56.727809 19.762574 -10.708410 5.180584 11.292575 -3.353875 -4.847788 0.536696 0.465800 -0.188610 0.544410 0.165370 -10.449651 44.169346 23.194663 30.705815 17.890204 1.831666 -10.230072 -13.698083 0.465409 3.218992 -1.311389 0.071180 0.327770 -0.312240 0.037380 
0.234730 16.476820 2.622370 15.550196 69.538272 -22.887160 -14.854479 15.650887 4.322506 -5.169653 6.527388 30.448203 -3.418281 9.106288 16.116518 0.388231 8.158895 1.664852 0.779040 1.133510 0.633040 18.817015 -7.860277 2.334335 0.500859 3.050372 14.405667 8.114462 -7.728894 27.141679 -1.133713 -6.586946 1.634455 0.946700 0.214700 0.461610 2.790089 -15.773727 -8.490447 19.148546 -12.374616 59.494130 -18.326027 21.192703 1.383291 -6.458126 14.075448 -28.448404 17.751764 -5.264489 23.842881 -12.447770 -1.095900 -13.457100 29.328249 -20.233259 8.876479 36.642139 10.621303 -8.544640 4.328204 16.565979 -3.095049 -6.787762 -0.369357 -0.006930 0.481680 0.227150 0.057030 -19.711508 19.843526 11.552405 52.513847 20.275077 4.224286 -20.236748 -8.840244 -0.173920 2.512160 -2.110681 -0.023910 0.303030 -0.097730 -0.011320 
0.569900 16.629640 2.758030 54.386684 83.726037 36.279340 -17.094691 14.774358 3.808564 -6.868178 3.389559 13.480723 1.409114 5.975044 16.985303 -0.115325 6.905182 2.469601 0.017830 0.259860 0.136930 16.400234 -9.666581 2.355145 0.525757 4.363144 -5.551390 7.326859 -5.872106 24.655072 -0.118394 -5.472289 2.091365 0.651990 1.116960 0.734250 0.035065 -9.853049 -8.844486 26.962093 6.751629 34.784059 -22.520747 37.451675 -19.541549 -13.329190 12.865224 -26.185008 22.405576 -1.278852 8.944800 -14.687860 5.526010 2.967670 46.053669 7.431222 29.477411 51.093736 -20.495539 -150.254313 16.687176 -10.625675 -0.532340 -2.620757 3.586219 -0.710171 1.424010 -0.519330 -0.025430 -29.043170 -35.879611 -0.128363 64.886952 -2.601515 5.247932 -22.276588 5.857188 -2.541730 2.123678 -2.305774 -0.281380 0.168770 0.295520 0.038650 
0.862430 16.711030 2.773250 156.203912 78.124337 153.667830 -15.326288 13.839254 4.102804 -10.633162 0.408545 -0.422202 4.571933 3.243421 16.752805 -0.427598 5.339730 3.310155 -0.747190 -0.706100 -0.500920 17.630029 -11.744938 3.480460 -1.560232 5.228492 -21.774313 7.085171 -5.357128 24.107906 0.528486 -4.682287 2.687229 0.132780 1.760930 0.558510 -1.921536 -1.095112 -7.748422 15.637534 7.634549 5.475370 -15.042285 28.343517 -23.622632 -9.505660 9.618289 -25.762682 20.139908 1.586409 12.179523 -9.994760 9.422470 12.375190 40.050970 15.919218 24.983667 66.457295 -34.568260 -147.231800 20.279477 -13.003205 0.453152 -3.133694 2.903472 -0.823950 1.682440 -1.029980 -0.011220 -32.408195 -46.770357 -3.758379 56.764724 -7.309351 3.210137 -18.939910 21.804377 -2.100203 2.043644 -2.175799 -0.646670 0.344420 0.650650 0.133610 
0.971350 16.754190 2.717380 172.947707 64.079327 174.213047 -14.703361 13.187881 4.309700 -11.547754 -1.382838 -3.812811 9.500351 1.092678 18.036175 -0.514217 5.352200 3.652858 -1.407420 -1.484280 -1.219660 18.024612 -12.660005 4.094742 -0.058832 4.088550 -23.957788 5.769114 -4.638800 19.822651 1.020492 -4.577725 2.928466 -0.142450 2.565710 0.561070 -2.988707 2.459057 -9.149711 3.641803 10.903007 -5.176796 -13.568890 28.792453 -19.998773 -7.377744 7.582700 -32.546807 18.259827 -4.367863 10.864886 -9.776080 2.017160 20.599360 71.157590 18.149546 14.853490 50.126538 -61.762705 -130.768954 40.179151 -11.764657 0.839868 -7.623197 -1.192968 -1.260520 2.152030 -1.666210 0.038850 -66.341422 -50.424588 7.803722 54.797365 -25.682034 -4.523622 -7.038142 19.977479 -1.047516 1.875783 -2.267347 -0.906450 0.499220 1.061540 0.374810 
1.111760 16.788430 2.692630 169.956913 51.879718 177.693309 -14.886175 13.927727 4.264492 -14.289592 -1.965009 -7.159000 11.668313 0.297332 15.406110 -0.806636 5.486604 3.817089 -1.978680 -2.130570 -2.171820 18.112872 -11.219286 3.505413 -3.075906 3.189663 -27.094544 4.871213 -4.241949 18.567764 1.441761 -4.162842 3.295794 -0.290690 3.354040 0.160610 -2.926769 -2.013674 -7.926572 4.746409 -1.891937 -12.150688 -35.709456 25.291286 -24.809304 4.675830 6.142167 -35.360698 12.797419 -1.654645 12.071720 1.660610 -7.677520 22.047710 79.545029 -7.205345 -12.234912 -10.343587 -42.363780 11.945559 51.485063 34.688867 2.657041 -7.097143 3.186944 -1.189960 2.174830 -2.207640 0.177320 -83.345553 -41.102622 0.628461 62.626652 -42.566400 -20.085847 9.591068 11.484208 -0.628975 0.126068 -0.596856 -1.431700 1.155610 1.614190 0.647240 
